HIERARCHY
ROOT SpineBase
{
  OFFSET 0.000000 0.000000 0.000000
  CHANNELS 6 Xposition Yposition Zposition Zrotation Xrotation Yrotation
  JOINT SpineMid
  {
    OFFSET -0.000000 32.198237 0.000000
    CHANNELS 3 Zrotation Xrotation Yrotation
    JOINT SpineShoulder
    {
      OFFSET 0.175392 23.975128 -0.841395
      CHANNELS 3 Zrotation Xrotation Yrotation
      JOINT Neck
      {
        OFFSET 0.118915 7.932975 -0.610130
        CHANNELS 3 Zrotation Xrotation Yrotation
        JOINT Head
        {
          OFFSET -5.316816 14.165196 -1.767881
          CHANNELS 3 Zrotation Xrotation Yrotation
          End Site
          {
            OFFSET 0 0 0
          }
        }
      }
      JOINT ShoulderLeft
      {
        OFFSET -17.174706 -6.147517 6.227446
        CHANNELS 3 Zrotation Xrotation Yrotation
        JOINT ElbowLeft
        {
          OFFSET -1.060162 -31.006002 2.800790
          CHANNELS 3 Zrotation Xrotation Yrotation
          JOINT WristLeft
          {
            OFFSET -1.975925 -23.076258 -3.826644
            CHANNELS 3 Zrotation Xrotation Yrotation
            JOINT HandLeft
            {
              OFFSET -0.274892 -2.912576 -1.272074
              CHANNELS 3 Zrotation Xrotation Yrotation
              JOINT HandTipLeft
              {
                OFFSET -2.208138 -7.650360 -0.255808
                CHANNELS 3 Zrotation Xrotation Yrotation
                End Site
                {
                  OFFSET 0 0 0
                }
              }
              JOINT ThumbLeft
              {
                OFFSET -3.791015 1.750370 -3.982935
                CHANNELS 3 Zrotation Xrotation Yrotation
                End Site
                {
                  OFFSET 0 0 0
                }
              }
            }
          }
        }
      }
      JOINT ShoulderRight
      {
        OFFSET 14.748230 -3.160740 -8.899806
        CHANNELS 3 Zrotation Xrotation Yrotation
        JOINT ElbowRight
        {
          OFFSET 7.883075 -26.403149 -1.842534
          CHANNELS 3 Zrotation Xrotation Yrotation
          JOINT WristRight
          {
            OFFSET -1.027875 -23.785746 -6.679263
            CHANNELS 3 Zrotation Xrotation Yrotation
            JOINT HandRight
            {
              OFFSET -0.513300 -6.153334 -1.085321
              CHANNELS 3 Zrotation Xrotation Yrotation
              JOINT HandTipRight
              {
                OFFSET -0.734291 -6.891243 -0.485637
                CHANNELS 3 Zrotation Xrotation Yrotation
                End Site
                {
                  OFFSET 0 0 0
                }
              }
              JOINT ThumbRight
              {
                OFFSET -3.589932 -0.162512 -1.022546
                CHANNELS 3 Zrotation Xrotation Yrotation
                End Site
                {
                  OFFSET 0 0 0
                }
              }
            }
          }
        }
      }
    }
  }
  JOINT HipLeft
  {
    OFFSET -6.479525 0.256865 -1.115124
    CHANNELS 3 Zrotation Xrotation Yrotation
    JOINT KneeLeft
    {
      OFFSET 3.754515 -35.897276 3.963379
      CHANNELS 3 Zrotation Xrotation Yrotation
      JOINT AnkleLeft
      {
        OFFSET 5.355581 -33.264499 6.562497
        CHANNELS 3 Zrotation Xrotation Yrotation
        JOINT FootLeft
        {
          OFFSET 1.221103 -10.038551 -3.017131
          CHANNELS 3 Zrotation Xrotation Yrotation
          End Site
          {
            OFFSET 0 0 0
          }
        }
      }
    }
  }
  JOINT HipRight
  {
    OFFSET 7.345879 1.711452 -6.243183
    CHANNELS 3 Zrotation Xrotation Yrotation
    JOINT KneeRight
    {
      OFFSET 9.112272 -32.474361 -0.276875
      CHANNELS 3 Zrotation Xrotation Yrotation
      JOINT AnkleRight
      {
        OFFSET 3.261630 -36.161812 8.886349
        CHANNELS 3 Zrotation Xrotation Yrotation
        JOINT FootRight
        {
          OFFSET -4.251808 -3.800296 -13.367189
          CHANNELS 3 Zrotation Xrotation Yrotation
          End Site
          {
            OFFSET 0 0 0
          }
        }
      }
    }
  }
}
MOTION
Frames: 11
Frame Time: 0.033333
-33.394468 79.789169 322.702944 4.788241 -3.432016 21.920589 0.235539 0.096887 -21.592008 0.160374 -0.198456 0.251924 7.293842 -5.482838 -1.784889 0.000000 0.000000 0.000000 -20.957875 34.251149 2.615757 99.013635 47.854523 -39.116504 0.306982 -14.255824 -8.258618 25.865598 30.100753 3.176782 0.000000 0.000000 0.000000 0.000000 0.000000 0.000000 25.687102 57.961472 -2.609892 -108.249427 0.619884 -40.223658 0.549523 35.480423 14.858492 -4.389544 -30.853108 -28.785691 0.000000 0.000000 0.000000 0.000000 0.000000 0.000000 -6.985040 9.720201 -21.415519 2.672596 -1.964505 -0.051272 -12.998712 19.095068 9.678653 0.000000 0.000000 0.000000 -7.089518 6.501605 -21.209953 2.001586 2.671324 -0.285047 2.705720 -3.919181 0.026071 0.000000 0.000000 0.000000
-33.456645 79.772034 322.766825 4.730617 -3.401159 22.101825 0.237569 0.143471 -21.780704 0.135702 -0.150071 0.244161 7.890943 -5.820690 -1.738082 0.000000 0.000000 0.000000 -20.916234 33.582780 2.530764 96.313938 47.340932 -37.084564 -4.416400 -11.041547 -12.502377 24.771417 32.898278 -12.936063 0.000000 0.000000 0.000000 0.000000 0.000000 0.000000 27.264084 58.170537 -3.449819 -107.259234 0.983811 -40.130665 -0.036873 32.058105 12.593609 -3.457726 -29.829032 -27.613071 0.000000 0.000000 0.000000 0.000000 0.000000 0.000000 -6.815721 9.744552 -21.601760 2.617528 -2.037714 -0.064153 -12.103384 17.612340 8.925724 0.000000 0.000000 0.000000 -6.902162 6.431955 -21.413929 1.844592 2.699120 -0.287850 2.229618 -2.701876 0.354142 0.000000 0.000000 0.000000
-33.475018 79.746698 322.786280 4.715567 -3.328986 22.185209 0.229600 0.166670 -21.869467 0.116741 -0.110424 0.238956 8.422726 -6.092387 -1.673220 0.000000 0.000000 0.000000 -20.455029 33.194320 2.361101 94.070776 46.823580 -35.615132 -24.902353 -7.852414 -21.629164 30.059613 38.969924 -26.288516 0.000000 0.000000 0.000000 0.000000 0.000000 0.000000 28.574059 57.934367 -4.158868 -105.897303 1.781084 -39.141889 -3.186457 26.960147 10.517460 2.159789 -29.196116 -25.370747 0.000000 0.000000 0.000000 0.000000 0.000000 0.000000 -6.788580 9.662400 -21.696835 2.593238 -1.987407 -0.058338 -9.776013 14.991845 7.339780 0.000000 0.000000 0.000000 -6.839429 6.386888 -21.502011 1.736241 2.617464 -0.315586 2.945592 -4.383773 0.045590 0.000000 0.000000 0.000000
-33.482511 79.699178 322.781812 4.706112 -3.254262 22.168791 0.223078 0.197000 -21.858555 0.107141 -0.075766 0.234662 8.774513 -6.271313 -1.607052 0.000000 0.000000 0.000000 -19.538395 32.782502 2.080087 92.745254 46.462990 -35.346076 -52.417935 -3.364736 -30.377519 48.226587 48.439892 -31.428752 0.000000 0.000000 0.000000 0.000000 0.000000 0.000000 29.260409 57.131796 -4.485080 -104.881298 2.818544 -37.418886 -5.531359 22.914459 8.590723 6.570098 -25.120077 -22.130548 0.000000 0.000000 0.000000 0.000000 0.000000 0.000000 -6.797056 9.549520 -21.692850 2.571904 -1.939467 -0.054489 -11.230217 20.109091 9.062863 0.000000 0.000000 0.000000 -6.787095 6.399574 -21.469037 1.648952 2.344121 -0.376621 3.743238 -6.296240 -0.134545 0.000000 0.000000 0.000000
-33.486427 79.666607 322.769607 4.701689 -3.183768 22.096586 0.219652 0.214392 -21.790748 0.107779 -0.050252 0.232082 8.934422 -6.305450 -1.542795 0.000000 0.000000 0.000000 -18.471197 32.740356 1.806374 92.483302 46.430027 -36.004057 -62.706384 -0.903850 -33.390783 60.245672 50.280407 -28.936650 0.000000 0.000000 0.000000 0.000000 0.000000 0.000000 28.634659 55.913371 -4.048440 -104.201784 4.011818 -35.086575 -8.463137 20.479916 7.898958 7.141910 -20.589439 -20.899154 0.000000 0.000000 0.000000 0.000000 0.000000 0.000000 -6.841539 9.422122 -21.633336 2.574071 -1.880617 -0.046425 -12.842643 24.094257 10.711217 0.000000 0.000000 0.000000 -6.833903 6.373208 -21.390554 1.704739 2.129884 -0.402431 4.275126 -7.712744 -0.225775 0.000000 0.000000 0.000000
-33.473929 79.635079 322.739118 4.718576 -3.099449 21.904397 0.209031 0.217386 -21.601520 0.110931 -0.040549 0.231443 8.703991 -6.031547 -1.470062 0.000000 0.000000 0.000000 -17.503626 33.118264 1.591336 94.001108 46.854781 -37.954148 -49.070729 -1.151431 -31.538778 54.131187 42.076954 -9.705152 0.000000 0.000000 0.000000 0.000000 0.000000 0.000000 26.726860 54.509285 -2.916356 -103.737846 5.176856 -32.467747 -11.786129 21.907184 10.288560 11.475580 -22.244241 -21.269475 0.000000 0.000000 0.000000 0.000000 0.000000 0.000000 -6.958611 9.245050 -21.455947 2.583519 -1.791518 -0.035724 -13.580222 26.540045 11.643258 0.000000 0.000000 0.000000 -6.963324 6.358497 -21.182316 1.814808 1.889283 -0.433223 4.582645 -8.526826 -0.205286 0.000000 0.000000 0.000000
-33.469581 79.627207 322.708020 4.723601 -3.026583 21.724059 0.203806 0.205267 -21.423649 0.119470 -0.050106 0.232306 8.190382 -5.531145 -1.401816 0.000000 0.000000 0.000000 -16.762556 34.407170 1.502297 98.283180 47.689139 -41.461464 -35.497692 -15.245272 -24.544240 45.326857 35.371603 -2.653764 0.000000 0.000000 0.000000 0.000000 0.000000 0.000000 24.355841 53.202993 -1.597307 -103.929023 6.115873 -30.082075 -12.263564 24.022626 12.482611 11.674824 -21.167789 -21.035552 0.000000 0.000000 0.000000 0.000000 0.000000 0.000000 -7.032869 9.108024 -21.287288 2.581507 -1.777453 -0.037322 -13.675578 27.669064 11.957861 0.000000 0.000000 0.000000 -7.107274 6.339969 -20.989197 1.985397 1.688731 -0.447402 4.620217 -8.701937 -0.143827 0.000000 0.000000 0.000000
-33.436375 79.641294 322.659818 4.758118 -2.907007 21.522651 0.185555 0.221027 -21.226486 0.114168 -0.045884 0.231503 7.640828 -5.244276 -1.353310 0.000000 0.000000 0.000000 -16.295892 36.424420 1.510362 98.452348 46.828841 -39.110932 -39.167149 -14.392192 -26.717781 48.859571 33.950871 4.841660 0.000000 0.000000 0.000000 0.000000 0.000000 0.000000 21.329201 51.731563 0.049309 -104.074006 6.910883 -27.584628 -12.035215 26.145497 14.639811 13.035047 -20.451207 -20.175468 0.000000 0.000000 0.000000 0.000000 0.000000 0.000000 -7.223859 8.931630 -21.102313 2.665973 -1.724484 -0.020082 -13.747995 27.349810 11.908005 0.000000 0.000000 0.000000 -7.336727 6.252927 -20.787741 2.243661 1.563369 -0.430614 4.346178 -8.212893 -0.052614 0.000000 0.000000 0.000000
-33.432036 79.686258 322.613682 4.763418 -2.790590 21.244780 0.183359 0.225762 -20.954081 0.110003 -0.045958 0.230635 6.779459 -4.594816 -1.260451 0.000000 0.000000 0.000000 -16.199780 36.268896 1.453866 97.361483 46.769135 -38.432138 -49.210457 -11.658509 -30.962793 60.362409 34.727409 9.836774 0.000000 0.000000 0.000000 0.000000 0.000000 0.000000 18.318685 50.578406 1.632626 -104.251215 7.391953 -25.680151 -10.150104 28.951615 16.842503 11.481223 -21.850501 -21.429759 0.000000 0.000000 0.000000 0.000000 0.000000 0.000000 -7.359856 8.700675 -20.846374 2.695597 -1.667245 -0.012024 -13.473665 26.524864 11.568761 0.000000 0.000000 0.000000 -7.500405 6.153050 -20.511453 2.415214 1.458249 -0.426109 3.885471 -7.098934 0.100321 0.000000 0.000000 0.000000
-33.459683 79.755208 322.581045 4.723990 -2.685767 20.933881 0.191881 0.225908 -20.650472 0.104766 -0.048551 0.228532 5.840534 -3.762845 -1.129710 0.000000 0.000000 0.000000 -16.716189 35.467019 1.522407 96.259633 45.795632 -36.555661 -81.464696 -3.723228 -39.755478 106.178731 46.503665 -16.515243 0.000000 0.000000 0.000000 0.000000 0.000000 0.000000 16.265799 50.157887 2.748814 -104.463642 7.508633 -25.046305 -8.107284 33.074588 20.058428 8.426099 -28.147903 -25.962100 0.000000 0.000000 0.000000 0.000000 0.000000 0.000000 -7.420591 8.464281 -20.559515 2.704299 -1.646704 -0.011579 -12.947228 24.872358 10.915161 0.000000 0.000000 0.000000 -7.594956 6.011258 -20.215205 2.531709 1.491331 -0.407786 3.229052 -5.502121 0.315973 0.000000 0.000000 0.000000
-33.510550 79.841694 322.555011 4.644074 -2.585101 20.603601 0.204896 0.214074 -20.328845 0.097638 -0.057627 0.225420 4.922104 -2.845338 -0.970243 0.000000 0.000000 0.000000 -17.544219 34.753017 1.680895 95.982376 46.248756 -36.649547 -92.932886 3.055113 -41.448069 128.957155 49.341471 -28.462636 0.000000 0.000000 0.000000 0.000000 0.000000 0.000000 15.291162 50.640396 3.408304 -104.664644 7.249352 -25.946694 -6.027930 36.370837 22.127889 4.698620 -26.438942 -26.355637 0.000000 0.000000 0.000000 0.000000 0.000000 0.000000 -7.438602 8.205773 -20.257587 2.738407 -1.628509 -0.005601 -12.388371 21.758668 9.913544 0.000000 0.000000 0.000000 -7.609888 5.858581 -19.902404 2.608306 1.518921 -0.393306 1.653149 -1.832673 1.334156 0.000000 0.000000 0.000000
